<!DOCTYPE svg PUBLIC "-//W3C//DTD SVG 1.1//EN" "http://www.w3.org/Graphics/SVG/1.1/DTD/svg11.dtd">
<!-- Uploaded to: SVG Repo, www.svgrepo.com, Transformed by: SVG Repo Mixer Tools -->
<svg fill="#ffffff" width="800px" height="800px" viewBox="0 0 24 24" id="linkedin" data-name="Flat Color" xmlns="http://www.w3.org/2000/svg" class="icon flat-color">
<g id="SVGRepo_bgCarrier" stroke-width="0"/>
<g id="SVGRepo_tracerCarrier" stroke-linecap="round" stroke-linejoin="round"/>
<g id="SVGRepo_iconCarrier">
<rect id="primary" x="2" y="2" width="20" height="20" rx="2" style="fill: #0a66c2;"/>
<path id="secondary" d="M17,14v3a1,1,0,0,1-2,0V14a1,1,0,0,0-2,0v3a1,1,0,0,1-2,0V12a1,1,0,0,1,1.71-.7A3,3,0,0,1,14,11,3,3,0,0,1,17,14ZM8,11a1,1,0,0,0-1,1v5a1,1,0,0,0,2,0V12A1,1,0,0,0,8,11ZM8,6A1.5,1.5,0,1,0,9.5,7.5,1.5,1.5,0,0,0,8,6Z" style="fill: #0a66c22ca9bc;"/>
</g>
</svg>