<!DOCTYPE svg PUBLIC "-//W3C//DTD SVG 1.1//EN" "http://www.w3.org/Graphics/SVG/1.1/DTD/svg11.dtd">
<!-- Uploaded to: SVG Repo, www.svgrepo.com, Transformed by: SVG Repo Mixer Tools -->
<svg fill="#ffffff" width="800px" height="800px" viewBox="0 0 24 24" id="whatsapp" data-name="Flat Line" xmlns="http://www.w3.org/2000/svg" class="icon flat-line" stroke="#ffffff">
<g id="SVGRepo_bgCarrier" stroke-width="0"/>
<g id="SVGRepo_tracerCarrier" stroke-linecap="round" stroke-linejoin="round"/>
<g id="SVGRepo_iconCarrier">
<path id="secondary" d="M10.54,3.12A9,9,0,0,0,4,16.12L3,21l4.88-1A9,9,0,1,0,10.54,3.12ZM8.68,10.94A5.27,5.27,0,0,1,8,8H9.81l.4,1.4ZM16,16a5.27,5.27,0,0,1-2.94-.66l1.54-1.53,1.4.4Z" style="fill: #67c15e; stroke-width:1.2;"/>
<path id="primary" d="M8.68,10.94,10.21,9.4,9.81,8H8s-.41,2.54,2.52,5.46S16,16,16,16V14.19l-1.4-.4-1.54,1.53" style="fill: none; stroke: #67c15e000000; stroke-linecap: round; stroke-linejoin: round; stroke-width:1.2;"/>
<path id="primary-2" data-name="primary" d="M20.88,13.46A9,9,0,0,1,7.88,20L3,21l1-4.88a9,9,0,1,1,16.88-2.66Z" style="fill: none; stroke: #67c15e000000; stroke-linecap: round; stroke-linejoin: round; stroke-width:1.2;"/>
</g>
</svg>